<svg width="36" height="50" viewBox="0 0 36 50" fill="none" xmlns="http://www.w3.org/2000/svg">
<path d="M15.9926 1.06131C17.1302 0.404568 18.5316 0.404567 19.6691 1.06131L31.4346 7.85414C32.5721 8.51087 33.2729 9.72458 33.2729 11.0381V24.6237C33.2729 25.9372 32.5721 27.1509 31.4346 27.8076L19.6691 34.6005C18.5316 35.2572 17.1302 35.2572 15.9926 34.6005L4.22712 27.8076C3.08962 27.1509 2.38889 25.9372 2.38889 24.6237V11.0381C2.38889 9.72458 3.08962 8.51087 4.22712 7.85414L15.9926 1.06131Z" fill="url(#paint0_linear_3_888)"/>
<g style="mix-blend-mode:hard-light">
<path d="M16.1765 15.2934C17.2002 14.7024 18.4615 14.7024 19.4853 15.2934L31.6185 22.2985C32.6422 22.8896 33.2729 23.9819 33.2729 25.164V39.1742C33.2729 40.3563 32.6422 41.4487 31.6185 42.0397L19.4853 49.0448C18.4615 49.6359 17.2002 49.6359 16.1765 49.0448L4.0433 42.0397C3.01954 41.4487 2.38889 40.3563 2.38889 39.1742V25.164C2.38889 23.9819 3.01954 22.8896 4.0433 22.2985L16.1765 15.2934Z" fill="url(#paint1_linear_3_888)"/>
</g>
<defs>
<linearGradient id="paint0_linear_3_888" x1="17.8309" y1="0" x2="17.8309" y2="35.6618" gradientUnits="userSpaceOnUse">
<stop stop-color="#01B3FF"/>
<stop offset="1" stop-color="#6BD997"/>
</linearGradient>
<linearGradient id="paint1_linear_3_888" x1="17.8309" y1="14.3382" x2="17.8309" y2="50" gradientUnits="userSpaceOnUse">
<stop stop-color="#4301FF"/>
<stop offset="1" stop-color="#D96BCE"/>
</linearGradient>
</defs>
</svg>
